<?xml version="1.0" encoding="UTF-8"?>
<svg version="1.1" xmlns="http://www.w3.org/2000/svg" width="1254" height="1254">
<path d="M0 0 C413.82 0 827.64 0 1254 0 C1254 413.82 1254 827.64 1254 1254 C840.18 1254 426.36 1254 0 1254 C0 840.18 0 426.36 0 0 Z " fill="#FDFDFD" transform="translate(0,0)"/>
<path d="M0 0 C1.12910813 -0.00521549 2.25821626 -0.01043099 3.42153978 -0.01580453 C4.65720926 -0.01134309 5.89287873 -0.00688164 7.16599274 -0.002285 C8.4826025 -0.00540498 9.79921226 -0.00852497 11.15571928 -0.01173949 C14.80942576 -0.02009516 18.46302787 -0.01595854 22.11673474 -0.00976706 C26.05846952 -0.00524602 30.00018622 -0.01222508 33.94191742 -0.0177269 C41.66798571 -0.02663021 49.39401518 -0.02469356 57.120085 -0.01890162 C63.40792805 -0.0143836 69.69576022 -0.01377285 75.98360443 -0.01594925 C77.32648209 -0.01640895 77.32648209 -0.01640895 78.69648859 -0.01687793 C80.51542557 -0.01751741 82.33436254 -0.01816584 84.15329951 -0.01882312 C101.22435132 -0.02453051 118.29538169 -0.01796484 135.36642998 -0.00722238 C149.97870553 0.00168904 164.59094924 0.00018182 179.20322418 -0.00905991 C196.18867405 -0.01979763 213.17410503 -0.02395542 230.15955782 -0.01783538 C231.97666963 -0.01719833 233.79378144 -0.01656959 235.61089325 -0.01594925 C236.50479919 -0.0156407 237.39870514 -0.01533215 238.31969914 -0.01501425 C244.58366913 -0.01329595 250.84762704 -0.01618416 257.11159515 -0.02090836 C264.77007667 -0.02655728 272.42851726 -0.02491842 280.08699417 -0.01434687 C283.98626642 -0.00913977 287.88547082 -0.00694675 291.78474236 -0.01364517 C308.07176928 -0.03931489 324.18780029 0.19165429 340.36777496 2.25168228 C341.53838722 2.40043179 342.70899948 2.54918129 343.91508484 2.70243835 C364.29425878 5.45871449 383.36746454 11.32301259 401.36777496 21.25168228 C402.71629963 21.97124559 404.06526564 22.68998235 405.41464996 23.40793228 C418.05996382 30.22857306 429.45838977 38.1080364 439.92636871 47.96652603 C441.99711635 49.90474582 444.11313212 51.7056556 446.30527496 53.50168228 C464.51023782 69.44031302 478.93049451 92.75226774 487.36777496 115.25168228 C487.78672028 116.31386978 488.20566559 117.37605728 488.63730621 118.47043228 C507.66029762 168.58538246 504.69908834 228.64753709 482.91953278 277.27878189 C475.31441212 293.60521998 465.32604893 307.85176169 453.36777496 321.25168228 C452.64718903 322.09344009 451.92660309 322.93519791 451.18418121 323.80246353 C446.91618056 328.75267871 442.43870815 333.13100915 437.36777496 337.25168228 C436.45640778 338.00062759 435.54504059 338.74957291 434.60605621 339.52121353 C421.93471428 349.6169502 408.11246329 357.68811369 393.52793121 364.69308853 C390.31746979 366.19173148 390.31746979 366.19173148 387.36777496 368.25168228 C395.60456039 377.93902588 395.60456039 377.93902588 404.05527496 387.43918228 C407.06591975 390.75251308 409.93342675 394.14110157 412.74277496 397.62668228 C416.42479031 402.18109151 420.29677854 406.48915793 424.28354645 410.77292252 C427.25464247 413.98431635 430.06724084 417.27777991 432.80527496 420.68918228 C436.17124158 424.87406028 439.69957137 428.83478692 443.36777496 432.75168228 C447.86738772 437.55712145 452.09880955 442.50329472 456.22324371 447.63840103 C458.36652452 450.25015852 460.59157826 452.7553353 462.86777496 455.25168228 C465.94431168 458.62629176 468.87895714 462.06984093 471.74277496 465.62668228 C475.42414185 470.18028941 479.29551969 474.48750744 483.28134918 478.77072525 C486.27190137 482.00344432 489.10549182 485.31855894 491.86777496 488.75168228 C495.11307735 492.78213847 498.48258229 496.64134717 501.99277496 500.43918228 C502.46022125 500.94546158 502.92766754 501.45174088 503.40927887 501.97336197 C504.7281741 503.40002685 506.04795303 504.82587465 507.36777496 506.25168228 C509.77631984 508.86395746 512.11617786 511.50297933 514.36777496 514.25168228 C515.12767731 515.12953384 515.12767731 515.12953384 515.90293121 516.02511978 C519.89281229 521.29309646 520.09917995 526.41218925 519.85605621 532.90011978 C518.96341191 539.02723028 516.25298414 542.46073357 511.86777496 546.62668228 C507.02291509 549.7758412 503.199068 550.5039599 497.43135834 550.52583694 C496.74543265 550.53107362 496.05950697 550.5363103 495.35279566 550.54170567 C493.06077291 550.55667351 490.76897404 550.55741011 488.47690582 550.55807877 C486.83063126 550.56570271 485.18436024 550.57413061 483.53809357 550.58330154 C479.0687113 550.60523714 474.59939747 550.61404481 470.12996745 550.61912799 C467.33393404 550.62277432 464.53791846 550.62901599 461.74189186 550.63612938 C451.97630911 550.66062586 442.21077944 550.67367507 432.44516754 550.67721939 C423.36167111 550.68084923 414.27851369 550.71070449 405.19512075 550.75262398 C397.38342038 550.78740251 389.57183186 550.80276918 381.76005465 550.80346543 C377.10050139 550.80425602 372.44129314 550.81289308 367.7818203 550.84146309 C363.39283345 550.86777189 359.00447436 550.86977813 354.61544418 550.85380745 C353.01274679 550.85200277 351.41001225 550.85859418 349.80739403 550.87462616 C336.24296645 551.00194388 325.9143477 548.52912382 315.87558746 538.84543228 C309.4051329 532.15324874 303.18769896 525.25463242 297.09043121 518.22043228 C295.1461836 515.99843501 293.16440533 513.81313005 291.18027496 511.62668228 C287.56410078 507.62437425 284.04770298 503.5488504 280.55527496 499.43918228 C275.52708964 493.52917029 270.32012689 487.81127867 265.03574371 482.13058853 C260.77793945 477.53614967 256.69285027 472.80676638 252.62949371 468.04074478 C247.04458563 461.49512797 241.40223536 455.03128721 235.59043121 448.68527603 C231.52951383 444.23896403 227.58926624 439.69321514 223.69199371 435.10324478 C218.09418646 428.51992761 212.40931321 422.05190872 206.51963043 415.7277565 C203.34700794 412.32066768 200.25227699 408.86261006 197.20761871 405.34152603 C194.80107201 402.6079751 192.33467285 399.93060832 189.86777496 397.25168228 C186.19184196 393.25766956 182.54410203 389.24594683 179.00839996 385.12668228 C177.81886842 383.76721766 176.59530277 382.43729299 175.35214996 381.12668228 C174.69730621 380.42543228 174.04246246 379.72418228 173.36777496 379.00168228 C172.76964996 378.37777603 172.17152496 377.75386978 171.55527496 377.11105728 C170.36777496 375.25168228 170.36777496 375.25168228 170.68027496 373.01730728 C171.36777496 371.25168228 171.36777496 371.25168228 173.03720856 370.44723892 C175.36777496 370.25168228 175.36777496 370.25168228 177.86631012 372.21432877 C178.80912396 373.1715253 179.73846245 374.14210765 180.65683746 375.12277603 C181.16016602 375.63792267 181.66349457 376.15306931 182.1820755 376.68382645 C183.79788377 378.34090288 185.39606085 380.01371621 186.99277496 381.68918228 C201.34050685 398.06628686 201.34050685 398.06628686 220.68027496 405.68918228 C229.79676849 405.28675642 235.93594978 401.38496422 242.06699371 394.86105728 C243.3619896 393.39236925 244.65473462 391.92166531 245.93955231 390.44406509 C250.06843336 385.69926084 254.29689656 381.07196203 258.61777496 376.50168228 C263.97651881 370.81061324 269.28807375 365.0826478 274.55918121 359.31027603 C277.80333799 355.76705403 281.08598572 352.26001543 284.36777496 348.75168228 C288.55758711 344.27233257 292.72986387 339.77904383 296.86777496 335.25168228 C304.52727932 326.87444985 312.29630206 318.59918725 320.05527496 310.31418228 C325.79602667 304.17990201 331.50548811 298.02651323 337.10605621 291.76340103 C342.3187391 285.97453212 347.63697819 280.28112945 352.9292984 274.56515884 C358.67302873 268.35991095 364.38765112 262.13384209 370.03183746 255.83761978 C372.74783379 252.83094826 375.49225528 249.85174312 378.24277496 246.87668228 C378.74905426 246.32842789 379.25533356 245.78017349 379.77695465 245.21530533 C382.27840461 242.50752153 384.78423385 239.80400611 387.29746246 237.10715103 C400.30855312 224.25693431 400.30855312 224.25693431 406.74277496 207.81418228 C405.98423244 200.60802831 403.48191818 195.3658255 398.36777496 190.25168228 C391.66420607 186.19858651 384.91616232 186.41387636 377.36777496 187.25168228 C368.22794634 190.28364466 361.30872143 200.07930161 355.24668121 207.15402603 C353.041502 209.61594129 350.71890819 211.92891869 348.36777496 214.25168228 C345.41594471 217.16794831 342.56388638 220.09774063 339.86777496 223.25168228 C336.3856452 227.32511709 332.59222071 231.04203347 328.78183746 234.80636978 C326.08026203 237.54291707 323.57698761 240.40147594 321.07871246 243.32199478 C318.62326219 246.0913839 315.97681158 248.65203352 313.34043121 251.24777603 C310.79439667 253.8341438 308.4475594 256.56703508 306.08261871 259.31808853 C303.86730117 261.81599784 301.49879326 264.13193217 299.11777496 266.47043228 C297.28535009 268.33557903 295.57424362 270.27095974 293.86777496 272.25168228 C291.11418691 275.44781127 288.22067158 278.42430073 285.21079254 281.3774147 C283.43659867 283.18169161 281.77844834 285.03997919 280.12949371 286.95871353 C276.42061522 291.22416877 272.57045705 295.3393896 268.68027496 299.43918228 C263.84034783 304.56020221 259.01321477 309.69082074 254.24277496 314.87668228 C249.8197836 319.68193561 245.3823571 324.47335492 240.93027496 329.25168228 C240.35068024 329.87510513 239.77108551 330.49852798 239.17392731 331.14084244 C235.96763657 334.57862083 232.71370255 337.94953318 229.36777496 341.25168228 C219.09237621 336.51351922 211.06933794 326.03010145 203.21298981 318.07638931 C197.64728568 312.44794512 192.10166676 306.85716096 186.07529449 301.71457291 C183.47221077 299.48442168 181.01264068 297.14225265 178.55527496 294.75168228 C177.64132965 293.87511978 176.72738434 292.99855728 175.78574371 292.09543228 C170.78824353 286.21791995 169.79988991 280.66578336 170.02402496 273.18527603 C170.73799934 267.09215376 173.21029587 263.05679816 177.68027496 258.93918228 C184.80317327 253.42419562 191.52510485 252.22660842 200.36777496 253.25168228 C208.93807471 255.59559315 215.37580979 260.08127997 221.50839996 266.37668228 C228.05763893 273.15915486 228.05763893 273.15915486 236.36777496 277.25168228 C236.62154404 276.67226883 236.87531311 276.09285538 237.13677216 275.49588394 C238.50798433 272.99607109 240.03776753 271.34786507 242.06381989 269.34445572 C242.82188431 268.58977005 243.57994873 267.83508438 244.3609848 267.05752945 C245.59217796 265.84652573 245.59217796 265.84652573 246.84824371 264.61105728 C247.69445786 263.77004471 248.540672 262.92903214 249.41252899 262.06253433 C252.12208026 259.37079891 254.83819573 256.68581702 257.55527496 254.00168228 C260.25367258 251.33101866 262.9505622 248.65887706 265.64446259 245.98367691 C267.3201091 244.32015631 268.99842099 242.65931468 270.67983246 241.00162125 C274.85721757 236.85949234 278.83296637 232.63270409 282.66799164 228.17309952 C285.57217544 224.89024062 288.70729321 221.84919078 291.84043121 218.78683853 C293.24892408 217.39585582 294.65711821 216.00457056 296.06504059 214.61301041 C298.24933876 212.45963254 300.43588005 210.30869551 302.62778473 208.16305923 C304.76811313 206.06540793 306.89858144 203.95812606 309.02793121 201.84933853 C309.67496506 201.2209256 310.3219989 200.59251266 310.98863983 199.94505692 C320.41818293 190.56825253 325.37135953 181.30637421 325.68027496 167.87668228 C325.61986101 161.96954023 324.75701195 158.06908831 321.36777496 153.25168228 C320.78382965 152.34676041 320.78382965 152.34676041 320.18808746 151.42355728 C315.42133968 144.93626741 307.84054081 141.74260423 300.36777496 139.25168228 C298.66117927 139.15920878 296.95116156 139.12509613 295.24206257 139.12419033 C294.17510397 139.12118268 293.10814537 139.11817503 292.00885469 139.11507624 C290.24420264 139.1177018 290.24420264 139.1177018 288.44390106 139.1203804 C287.19741529 139.11826469 285.95092952 139.11614897 284.66667145 139.11396915 C281.92475748 139.10936745 279.1828661 139.1079522 276.44094849 139.1089344 C271.97985698 139.11052547 267.51878793 139.10532867 263.05770111 139.09930801 C256.58018564 139.0911902 250.10267411 139.08624949 243.6251545 139.08301735 C233.38579524 139.0775229 223.14646935 139.06062728 212.90712738 139.04167557 C209.40461832 139.03531858 205.90210917 139.02901017 202.39960003 139.0226984 C201.52423374 139.02111464 200.64886746 139.01953088 199.74697492 139.01789912 C189.77918736 138.99995716 179.81139744 138.98373373 169.84360504 138.9687233 C168.93227191 138.96734743 168.02093878 138.96597155 167.08198949 138.96455399 C152.31803992 138.94263026 137.55409892 138.93186946 122.79013596 138.92435255 C107.63423755 138.91628038 92.47841264 138.8929861 77.3225562 138.85639888 C67.97360906 138.83437599 58.62481308 138.82470858 49.27584132 138.83089922 C42.86693466 138.8340748 36.45815702 138.82273714 30.04929028 138.8000048 C26.35207475 138.78734223 22.65514667 138.78116063 18.95792007 138.79242134 C14.94721228 138.80447971 10.93723393 138.78566477 6.92656708 138.76393509 C5.17864545 138.77659889 5.17864545 138.77659889 3.39541227 138.78951854 C-4.22610587 138.71308517 -10.08482727 137.81927397 -15.69081879 132.18136978 C-16.37337738 131.16429947 -16.37337738 131.16429947 -17.06972504 130.12668228 C-17.77935394 129.10187759 -17.77935394 129.10187759 -18.50331879 128.05636978 C-20.35317259 125.09916405 -20.7619319 123.35775838 -20.78612518 119.88898087 C-20.79472565 118.97223587 -20.80332611 118.05549088 -20.81218719 117.11096573 C-20.81644714 116.1021434 -20.82070709 115.09332108 -20.82509613 114.05392838 C-20.83327362 112.9935939 -20.84145111 111.93325943 -20.8498764 110.84079361 C-20.8747619 107.31890813 -20.89125642 103.79706309 -20.90566254 100.27511978 C-20.91098621 99.07335728 -20.91630989 97.87159477 -20.92179489 96.63341522 C-20.94854285 90.27001203 -20.96791069 83.90662854 -20.98232269 77.54318619 C-20.99895533 70.97248183 -21.04371764 64.40228051 -21.09469414 57.83176613 C-21.12836997 52.77878627 -21.13990071 47.72592561 -21.14554977 42.67284393 C-21.15226349 40.25117152 -21.16748853 37.82950699 -21.19144058 35.40794373 C-21.22309417 32.01348216 -21.22312756 28.62037407 -21.21572113 25.22580338 C-21.23212646 24.22912643 -21.2485318 23.23244949 -21.26543427 22.20557022 C-21.20689301 15.63491701 -19.84036405 11.35023337 -15.63222504 6.25168228 C-10.89181153 1.74828945 -6.5080776 0.00216963 0 0 Z " fill="#03255C" transform="translate(400.6322250366211,261.74831771850586)"/>
<path d="M0 0 C89.17887931 0 89.17887931 0 104.44921875 14.28515625 C115.9464756 26.99874758 118.82440124 40.089428 118.17919922 56.67529297 C117.33048283 67.68548019 111.10790501 78.81794819 103.1328125 86.328125 C92.07009346 95 92.07009346 95 86 95 C91.99170594 106.06404959 98.54233114 116.68969031 105.3359375 127.27734375 C109.05668242 133.07615366 112.7306212 138.90292469 116.375 144.75 C116.94057617 145.64936279 117.50615234 146.54872559 118.08886719 147.4753418 C118.60352539 148.30332275 119.11818359 149.13130371 119.6484375 149.984375 C120.10395996 150.71366211 120.55948242 151.44294922 121.02880859 152.19433594 C122 154 122 154 122 156 C98.80198213 159.86873075 98.80198213 159.86873075 89 156 C81.31304589 149.71786406 77.70767279 139.92566365 73.84277344 131.02148438 C70.99794691 124.6079883 67.20553523 118.75355892 63.5 112.8125 C62.25646154 110.75890021 61.01650718 108.70312293 59.78125 106.64453125 C59.26626953 105.79221924 58.75128906 104.93990723 58.22070312 104.06176758 C57.43456155 102.73397446 56.69008016 101.38016032 56 100 C47.09 99.67 38.18 99.34 29 99 C29 117.81 29 136.62 29 156 C19.43 156 9.86 156 0 156 C0 104.52 0 53.04 0 0 Z " fill="#04245A" transform="translate(266,854)"/>
<path d="M0 0 C11.79019654 8.46144013 18.30002338 19.67939999 22.69140625 33.21386719 C23.02140625 34.20386719 23.35140625 35.19386719 23.69140625 36.21386719 C23.95018438 39.89675054 23.92287012 43.58535952 23.94140625 47.27636719 C23.96203125 48.27603516 23.98265625 49.27570312 24.00390625 50.30566406 C24.08252861 65.43064034 17.96933153 78.78049721 7.5390625 89.66699219 C-7.98587899 103.55212505 -24.46111805 104.99938031 -44.42724609 104.39306641 C-49.8933788 104.05311204 -54.4251155 102.75012525 -59.30859375 100.21386719 C-60.1696875 99.77816406 -61.03078125 99.34246094 -61.91796875 98.89355469 C-77.48853848 90.25896602 -85.98909004 77.25558445 -90.8527832 60.31884766 C-94.1622817 45.03523972 -90.72535411 29.07069501 -82.99609375 15.77636719 C-74.50833647 2.88755057 -61.561792 -5.82874809 -46.54394531 -9.39575195 C-29.83622341 -12.3135815 -14.07149843 -9.29442933 0 0 Z " fill="#05255B" transform="translate(487.30859375,907.7861328125)"/>
<path d="M0 0 C12.82233997 9.73726569 20.34936256 22.09617538 23 38 C23 44.27 23 50.54 23 57 C-4.06 57 -31.12 57 -59 57 C-53.26745644 72.41745329 -53.26745644 72.41745329 -40.89453125 81.30859375 C-33.04324648 84.17390799 -23.44942185 84.43194089 -15.4921875 81.87109375 C-10.86559651 79.65056198 -7.02650581 77.30831587 -3.5 73.5625 C-2.2625 72.2940625 -2.2625 72.2940625 -1 71 C2.07601804 71.31678746 4.31507387 72.64428093 6.890625 74.28515625 C7.59960938 74.73310547 8.30859375 75.18105469 9.0390625 75.64257812 C9.76867187 76.11115234 10.49828125 76.57972656 11.25 77.0625 C11.99507812 77.53494141 12.74015625 78.00738281 13.5078125 78.49414062 C15.34162943 79.65790906 17.17123244 80.82831288 19 82 C14.9933371 92.62481143 6.17328093 98.19879759 -3.8125 102.875 C-11.63421215 106.36415372 -19.10972357 106.24656571 -27.5625 106.3125 C-29.38104492 106.35600586 -29.38104492 106.35600586 -31.23632812 106.40039062 C-46.87299382 106.50938615 -59.50344521 100.76877873 -70.8984375 90.19921875 C-80.79218364 79.84572605 -86.45939652 67.08922552 -86.1875 52.75 C-86.1781543 52.01128662 -86.16880859 51.27257324 -86.15917969 50.51147461 C-86.12242269 48.34021973 -86.06521458 46.17056718 -86 44 C-85.97035156 42.87207031 -85.94070313 41.74414062 -85.91015625 40.58203125 C-85.17983188 26.81274499 -78.19316081 14.35065149 -68.0625 5.0625 C-48.71331566 -10.325434 -21.42335727 -13.74522602 0 0 Z " fill="#06265C" transform="translate(1002,906)"/>
<path d="M0 0 C1.10661987 -0.00686325 2.21323975 -0.0137265 3.35339355 -0.02079773 C7.00094543 -0.03905468 10.64806665 -0.03522897 14.2956543 -0.02954102 C16.84002319 -0.03410391 19.38439084 -0.0394098 21.92875671 -0.04542542 C27.25903918 -0.05435484 32.58916581 -0.05217093 37.91943359 -0.04199219 C44.05946019 -0.03052538 50.19904924 -0.04456755 56.33901817 -0.07138866 C62.26945201 -0.0963139 68.19975125 -0.09870677 74.13023949 -0.0922718 C76.64233311 -0.09211885 79.15443526 -0.09814175 81.66649818 -0.11056328 C85.18684594 -0.12551614 88.70624353 -0.11476267 92.2265625 -0.09765625 C93.76913979 -0.1121582 93.76913979 -0.1121582 95.34288025 -0.12695312 C103.05949632 -0.04882122 110.00082424 1.45784585 116.2097168 6.26342773 C122.23852615 13.68822093 124.42703759 19.72112924 124.15893555 29.37280273 C123.29873542 36.7896394 120.2567702 43.31794872 114.80737305 48.40405273 C111.88819593 49.98020566 108.90188431 51.2185327 105.80737305 52.40405273 C104.81737305 52.89905273 104.81737305 52.89905273 103.80737305 53.40405273 C102.28212055 53.50896521 100.75242301 53.55220461 99.22361755 53.56468201 C98.25783279 53.57472763 97.29204803 53.58477325 96.29699707 53.59512329 C95.23364136 53.60095428 94.17028564 53.60678528 93.07470703 53.61279297 C91.39883263 53.62746864 91.39883263 53.62746864 89.68910217 53.6424408 C85.97723591 53.67244878 82.26540592 53.69379825 78.5534668 53.71264648 C77.28675707 53.71921831 76.02004734 53.72579014 74.71495247 53.73256111 C69.38859516 53.75846266 64.06225231 53.78195018 58.73585415 53.79705715 C51.11449964 53.81892849 43.49385286 53.86081389 35.87278122 53.93049473 C29.86066296 53.98358613 23.84886868 54.00355646 17.83650398 54.01225471 C15.28446026 54.02081018 12.73242916 54.03963022 10.18054008 54.06899834 C6.60173727 54.10795816 3.02476576 54.10894008 -0.55419922 54.10107422 C-2.12797836 54.13107513 -2.12797836 54.13107513 -3.73355103 54.16168213 C-11.08901629 54.08933723 -15.59507085 52.17209979 -21.19262695 47.40405273 C-26.29761724 42.1647206 -28.54526121 36.34914519 -28.61035156 29.1496582 C-28.59625244 28.4292334 -28.58215332 27.70880859 -28.56762695 26.96655273 C-28.55675049 26.21519043 -28.54587402 25.46382813 -28.53466797 24.68969727 C-28.29197236 16.2768602 -26.35310191 11.01252882 -20.30200195 4.94702148 C-13.78360887 0.17893766 -7.83243217 -0.03408439 0 0 Z " fill="#0957E9" transform="translate(409.192626953125,466.595947265625)"/>
<path d="M0 0 C1.09891068 -0.0071553 2.19782135 -0.01431061 3.33003235 -0.02168274 C6.93391496 -0.03848244 10.53653838 -0.01921795 14.14038086 0.00219727 C16.66043704 0.00136783 19.18049315 -0.00109435 21.70054626 -0.00511169 C26.97009671 -0.00796366 32.23932539 0.00613856 37.50878906 0.03417969 C43.58019951 0.06624148 49.65096747 0.06620444 55.72242361 0.04896492 C61.59151925 0.03304159 67.46037998 0.03997008 73.32946587 0.05690193 C75.81446243 0.06206982 78.29947747 0.06161895 80.78447151 0.05535698 C84.26166181 0.04988271 87.73777618 0.07035215 91.21484375 0.09765625 C92.23276001 0.09113037 93.25067627 0.08460449 94.29943848 0.07788086 C103.20734914 0.19630558 110.48948919 2.78694403 117.03491211 8.96704102 C122.8396806 15.37333992 123.37254848 22.3245264 122.98803711 30.70922852 C122.08492636 38.66294076 118.747043 44.25718245 112.67944336 49.37719727 C105.61107829 53.5251775 99.35291071 54.07404691 91.32836914 54.05102539 C90.23135681 54.05949493 89.13434448 54.06796448 88.00408936 54.07669067 C84.39445249 54.10000063 80.7852434 54.10108421 77.17553711 54.09985352 C74.65501741 54.10695868 72.13449932 54.11465819 69.61398315 54.1229248 C64.33677835 54.13635584 59.05968284 54.13812669 53.7824707 54.13208008 C47.70426085 54.12544319 41.62665843 54.14830029 35.54857171 54.18539381 C29.67524421 54.21992159 23.80215376 54.22641728 17.92873764 54.2223053 C15.44175279 54.22399382 12.95475973 54.2336104 10.46783829 54.25144958 C6.98336461 54.27369489 3.50033976 54.26390724 0.01586914 54.24633789 C-1.00159393 54.25960114 -2.01905701 54.27286438 -3.06735229 54.28652954 C-10.65400249 54.19807796 -17.29459761 52.34039617 -23.07627678 47.18843842 C-28.62230954 40.90067804 -29.94541099 35.2140133 -29.83227539 27.13110352 C-29.84387695 26.30223633 -29.85547852 25.47336914 -29.86743164 24.61938477 C-29.83381674 17.57146087 -27.81736113 12.44926997 -23.07633877 7.07370663 C-16.30552051 1.04083378 -8.73896559 -0.10057932 0 0 Z " fill="#05BBC2" transform="translate(410.457275390625,582.368896484375)"/>
<path d="M0 0 C1.48643509 -0.01506844 1.48643509 -0.01506844 3.00289917 -0.03044128 C4.08914078 -0.03627228 5.17538239 -0.04210327 6.29454041 -0.04811096 C7.43959045 -0.05789474 8.5846405 -0.06767853 9.76438904 -0.07775879 C13.56340877 -0.10773321 17.36239316 -0.12910645 21.16148376 -0.14796448 C22.45912596 -0.1545363 23.75676815 -0.16110813 25.09373283 -0.1678791 C30.55051912 -0.19377217 36.00729238 -0.21725922 41.46411991 -0.23237514 C49.26654961 -0.25424588 57.06828804 -0.29613916 64.8704415 -0.36581272 C70.36530083 -0.41320237 75.85997473 -0.43732885 81.35503191 -0.44457203 C84.63203565 -0.44950795 87.90808525 -0.46745663 91.18490791 -0.50431633 C94.84959873 -0.54331239 98.51250312 -0.54425334 102.17735291 -0.53639221 C103.78546089 -0.56639313 103.78546089 -0.56639313 105.42605591 -0.59700012 C113.05289749 -0.52385437 118.13867535 1.5066654 124.18882751 6.16062927 C126.44273376 8.60984802 126.44273376 8.60984802 127.75132751 10.84812927 C128.20636658 11.59449646 128.66140564 12.34086365 129.13023376 13.10984802 C132.51677062 19.67048215 132.12166699 27.99094921 130.54039001 35.05906677 C128.0337896 42.0218457 123.94254695 46.71791462 117.78266907 50.72642517 C112.72345462 52.74541961 108.11117035 52.59522422 102.71080017 52.58055115 C100.9877491 52.59325546 100.9877491 52.59325546 99.22988892 52.60621643 C95.43744292 52.62959096 91.64540256 52.6306084 87.85289001 52.62937927 C85.2126194 52.63648071 82.57235034 52.64417968 79.93208313 52.65245056 C74.39914156 52.66704132 68.86631271 52.66764507 63.33335876 52.66160583 C56.95183058 52.65496812 50.57088084 52.6778235 44.18946993 52.71491957 C38.03421027 52.74939329 31.8792226 52.75594727 25.72387314 52.75183105 C23.11242831 52.75352282 20.5009759 52.76317064 17.88959122 52.78097534 C14.23447785 52.80315328 10.58075326 52.79346662 6.92564392 52.77586365 C5.85109451 52.78912689 4.7765451 52.80239014 3.66943359 52.8160553 C-4.84180593 52.72099773 -9.65598638 50.31581538 -15.62367249 44.34812927 C-21.54301386 35.72280328 -22.16415387 26.37669572 -20.81117249 16.16062927 C-18.74542038 9.7147176 -13.18084955 5.03623301 -7.81117249 1.16062927 C-4.90635543 0.19235692 -3.02384741 0.02410928 0 0 Z " fill="#3CDAA6" transform="translate(401.81117248535156,698.8393707275391)"/>
<path d="M0 0 C10.2888195 7.27955474 15.73486494 16.0124426 18.4022522 28.1968689 C19.5243136 35.33591083 19.36537509 42.46667176 19.29296875 49.67578125 C19.28735872 51.33871575 19.28309529 53.00165528 19.28010559 54.66459656 C19.26876737 58.99647222 19.23939818 63.32803586 19.20599365 67.65979004 C19.17505205 72.09802024 19.1615493 76.53630191 19.14648438 80.97460938 C19.11451531 89.64989724 19.0618406 98.32487361 19 107 C10.09 107 1.18 107 -8 107 C-8.0093457 104.99768311 -8.01869141 102.99536621 -8.02832031 100.93237305 C-8.06225513 94.27861107 -8.11789429 87.62515388 -8.18390274 80.97163677 C-8.22322665 76.94193198 -8.25548829 72.91244076 -8.27099609 68.88256836 C-8.28626319 64.98543721 -8.32088321 61.08889385 -8.36830902 57.19202614 C-8.38302018 55.71352086 -8.39103505 54.2349316 -8.39188385 52.75635338 C-8.33892479 38.64832531 -8.33892479 38.64832531 -14.44683838 26.2964325 C-16.15901665 24.73216998 -16.15901665 24.73216998 -19 23 C-19.55042969 22.63777344 -20.10085938 22.27554688 -20.66796875 21.90234375 C-24.15897888 20.55155089 -27.62200615 20.63137942 -31.3125 20.625 C-32.04662109 20.60050781 -32.78074219 20.57601562 -33.53710938 20.55078125 C-39.99294806 20.51641121 -44.07697158 22.34970852 -48.92578125 26.74609375 C-49.38339844 27.30425781 -49.84101562 27.86242187 -50.3125 28.4375 C-50.78300781 28.99308594 -51.25351562 29.54867187 -51.73828125 30.12109375 C-54.76783495 34.63259632 -55.26073963 38.61841608 -55.31884766 43.9934082 C-55.32889328 44.67688828 -55.3389389 45.36036835 -55.34928894 46.06455994 C-55.38002905 48.30995897 -55.39713014 50.55523926 -55.4140625 52.80078125 C-55.43278157 54.36306269 -55.45235554 55.92533411 -55.4727478 57.4875946 C-55.52399709 61.58922401 -55.56366121 65.69088616 -55.60089111 69.79266357 C-55.64097605 73.98230036 -55.69204787 78.17180174 -55.7421875 82.36132812 C-55.83886152 90.57413293 -55.92227738 98.78699396 -56 107 C-65.24 107 -74.48 107 -84 107 C-84 71.03 -84 35.06 -84 -2 C-75.09 -2 -66.18 -2 -57 -2 C-56.67 2.29 -56.34 6.58 -56 11 C-55.01 9.783125 -54.02 8.56625 -53 7.3125 C-40.07686535 -7.37523938 -16.67400861 -9.72271892 0 0 Z " fill="#06265B" transform="translate(879,903)"/>
<path d="M0 0 C8.91 0 17.82 0 27 0 C27.01458252 2.07861328 27.02916504 4.15722656 27.04418945 6.29882812 C27.09466232 13.18806707 27.16127938 20.077083 27.23571491 26.9661026 C27.28032786 31.1404678 27.31960359 35.31473745 27.34643555 39.48925781 C27.37255962 43.52245219 27.41302529 47.55527706 27.46318626 51.58824158 C27.47979372 53.1222624 27.49134596 54.65634704 27.49761391 56.19044495 C27.48656409 70.83209002 27.48656409 70.83209002 35 83 C41.77688835 87.05429565 48.3107583 86.83578714 56 86 C62.14887031 84.2125377 66.54543763 81.30751244 70.0625 75.94140625 C72.45978531 70.97702792 73.2575925 66.56920547 73.31884766 61.07666016 C73.32889328 60.4125412 73.3389389 59.74842224 73.34928894 59.06417847 C73.37995262 56.88914788 73.39710855 54.71423941 73.4140625 52.5390625 C73.43278775 51.02305055 73.45236216 49.50704888 73.4727478 47.99105835 C73.52393191 44.01603266 73.56363069 40.04097323 73.60089111 36.0657959 C73.64101715 32.0034154 73.69207013 27.94117359 73.7421875 23.87890625 C73.83878425 15.91935888 73.92222975 7.9597536 74 0 C82.91 0 91.82 0 101 0 C101 35.97 101 71.94 101 109 C92.42 109 83.84 109 75 109 C74.67 104.71 74.34 100.42 74 96 C72.453125 97.85625 72.453125 97.85625 70.875 99.75 C64.13640612 107.35938634 55.84652871 111.33873339 45.68359375 112.3203125 C32.57408533 112.53699859 21.16982962 109.86789166 11.1875 100.875 C3.50530323 92.56493138 -0.34094232 81.19887989 -0.22705078 70.04516602 C-0.22748886 68.90246498 -0.22748886 68.90246498 -0.22793579 67.73667908 C-0.22655294 65.24230176 -0.21104155 62.74823078 -0.1953125 60.25390625 C-0.19157865 58.51513329 -0.18873343 56.77635822 -0.18673706 55.0375824 C-0.17912992 50.47883209 -0.15950672 45.92021083 -0.1373291 41.36151123 C-0.11680756 36.70261378 -0.10772189 32.04369532 -0.09765625 27.38476562 C-0.07625788 18.25644483 -0.04109975 9.12825338 0 0 Z " fill="#05255B" transform="translate(530,901)"/>
<path d="M0 0 C8.91 0 17.82 0 27 0 C27 9.9 27 19.8 27 30 C36.57 30 46.14 30 56 30 C56 37.26 56 44.52 56 52 C46.43 52 36.86 52 27 52 C27.05104656 59.86627532 27.11398451 67.73057131 27.20751953 75.59619141 C27.23792944 78.27145209 27.25694044 80.94610553 27.27099609 83.62158203 C27.29242903 87.46950921 27.33908517 91.31643524 27.390625 95.1640625 C27.39185364 96.35802643 27.39308228 97.55199036 27.39434814 98.78213501 C27.50572289 105.11212273 27.6618546 109.22359618 32 114 C35.48047449 116.65795536 39.1853941 116.23385596 43.4375 116.1875 C44.73558594 116.18105469 46.03367187 116.17460938 47.37109375 116.16796875 C50.38722841 116.02836295 53.07471935 115.70454736 56 115 C57.42625566 122.41143564 58.30071865 129.44862068 58 137 C57.06027344 137.30744141 57.06027344 137.30744141 56.1015625 137.62109375 C54.87566406 138.02521484 54.87566406 138.02521484 53.625 138.4375 C52.81289063 138.70433594 52.00078125 138.97117187 51.1640625 139.24609375 C48.98968201 139.95179729 48.98968201 139.95179729 47 141 C33.3432669 141.82074948 21.6826398 141.51092375 10.64453125 132.49609375 C5.30778854 127.64105229 1.4308986 121.10992283 0 114 C-0.08683655 111.95298893 -0.11768972 109.90334005 -0.11352539 107.85449219 C-0.11344986 106.61350769 -0.11337433 105.37252319 -0.11329651 104.09393311 C-0.10819031 102.74491333 -0.10297432 101.39589396 -0.09765625 100.046875 C-0.09579024 98.66253714 -0.0943672 97.27819862 -0.09336853 95.89385986 C-0.08955773 92.25738692 -0.07973975 88.62095418 -0.06866455 84.98449707 C-0.0584195 81.27092024 -0.05386429 77.5573369 -0.04882812 73.84375 C-0.03811615 66.56247959 -0.02053103 59.28125056 0 52 C-6.27 52 -12.54 52 -19 52 C-19 44.74 -19 37.48 -19 30 C-12.73 30 -6.46 30 0 30 C0 20.1 0 10.2 0 0 Z " fill="#05265B" transform="translate(666,871)"/>
<path d="M0 0 C5.73910495 4.59128396 9.27979611 9.28506431 11.8125 16.25 C12.15796875 17.15363281 12.5034375 18.05726563 12.859375 18.98828125 C15.39226038 27.65614722 15.03362269 36.84483332 11.0625 44.9375 C6.12164236 53.75867766 0.712423 57.99730213 -8.625 61.5625 C-16.39553977 63.06207785 -24.08128427 63.06250284 -31.1875 59.25 C-40.30147174 52.62655229 -44.49350508 46.01466036 -47.1875 35.25 C-48.16264647 24.76150594 -47.53736378 16.13812602 -41.19921875 7.55859375 C-29.9959167 -5.73444339 -15.21214408 -8.35176538 0 0 Z " fill="#FAFAFB" transform="translate(470.1875,926.75)"/>
<path d="M0 0 C8.91 0 17.82 0 27 0 C27 35.97 27 71.94 27 109 C18.09 109 9.18 109 0 109 C0 73.03 0 37.06 0 0 Z " fill="#05235A" transform="translate(744,901)"/>
<path d="M0 0 C9.0646875 -0.12375 9.0646875 -0.12375 18.3125 -0.25 C20.19622314 -0.28641602 22.07994629 -0.32283203 24.02075195 -0.36035156 C34.35120257 -0.47657888 43.80681149 -0.11833831 52.4375 6.3125 C58.20488303 12.36121878 60.36843461 18.4611222 60.2109375 26.82421875 C59.50836917 34.07108102 56.63438671 40.31481883 51 45 C43.6610074 49.25842781 36.81537654 50.15321028 28.41796875 50.09765625 C27.69565063 50.09664917 26.97333252 50.09564209 26.22912598 50.09460449 C23.54856768 50.08939952 20.86803213 50.07543837 18.1875 50.0625 C12.185625 50.041875 6.18375 50.02125 0 50 C0 33.5 0 17 0 0 Z " fill="#F9F9FB" transform="translate(295,879)"/>
<path d="M0 0 C1.12776855 0.00640503 1.12776855 0.00640503 2.27832031 0.01293945 C10.08949319 0.25207424 14.67424467 2.88851205 20.5 7.9375 C25.56676436 13.87285254 26.66004838 16.28038707 27.6875 24.5 C9.2075 24.5 -9.2725 24.5 -28.3125 24.5 C-26.87838567 15.89531403 -22.84880913 10.34661207 -16.21875 4.7890625 C-10.75476287 1.09415317 -6.46559938 -0.05534139 0 0 Z " fill="#F4F5F8" transform="translate(971.3125,919.5)"/>
<path d="M0 0 C4.47040864 2.23520432 8.84006214 5.36762264 11 10 C11.88768774 15.61944937 11.79754759 20.34582721 9.3125 25.5 C4.6129413 30.580604 1.53879797 32.65973096 -5.25 33.3125 C-10.70997496 32.85750209 -14.78650595 31.32042613 -18.6171875 27.3046875 C-21.82822545 22.82374753 -22.72892167 18.80761972 -22.41796875 13.328125 C-21.50860892 8.26290575 -18.92489513 5.6983902 -14.9375 2.6875 C-9.95924135 -0.17235071 -5.63535119 -0.68629491 0 0 Z " fill="#07265C" transform="translate(763,851)"/>
<path d="M0 0 C0.99 0.33 1.98 0.66 3 1 C-0.76234426 4.83651097 -4.53444439 8.66305527 -8.31591797 12.48071289 C-9.60087476 13.78075438 -10.8831259 15.08347592 -12.16259766 16.38891602 C-14.00238259 18.26509701 -15.85168861 20.13141846 -17.703125 21.99609375 C-18.55804535 22.87423988 -18.55804535 22.87423988 -19.43023682 23.77012634 C-22.21640903 26.55746712 -24.11899143 28.27794204 -28 29 C-22.61359076 22.44622903 -16.64114873 16.52753365 -10.625 10.5625 C-9.59221405 9.53474017 -8.55966009 8.50674715 -7.52734375 7.47851562 C-5.02089713 4.98298402 -2.5113292 2.49061918 0 0 Z " fill="#182F63" transform="translate(669,505)"/>
<path d="M0 0 C0 0.66 0 1.32 0 2 C-0.99 2.33 -1.98 2.66 -3 3 C-6.33116922 6.57491331 -8.30681852 9.40422169 -10 14 C-10.95824253 15.36365283 -11.94721175 16.70794169 -13 18 C-13.50939993 12.65130078 -12.36708449 10.14410399 -9 6 C-2.84931507 0 -2.84931507 0 0 0 Z " fill="#1E67F0" transform="translate(395,469)"/>
<path d="M0 0 C1.25841946 6.74153283 2.26404456 13.13484138 2 20 C1.67 20 1.34 20 1 20 C0.89042969 19.18015625 0.78085937 18.3603125 0.66796875 17.515625 C0.43013672 15.89914062 0.43013672 15.89914062 0.1875 14.25 C0.03667969 13.18265625 -0.11414063 12.1153125 -0.26953125 11.015625 C-1.02102958 7.91318269 -1.84848998 6.31951206 -4 4 C-4.66 3.67 -5.32 3.34 -6 3 C-4.60722783 0.21445565 -3.01148006 0 0 0 Z " fill="#394D7B" transform="translate(722,986)"/>
<path d="M0 0 C5.24972347 4.10037573 9.20962911 8.52964787 13 14 C10 14 10 14 7.7734375 11.953125 C6.58621094 10.61507812 6.58621094 10.61507812 5.375 9.25 C4.57835937 8.36828125 3.78171875 7.4865625 2.9609375 6.578125 C1.16991265 4.22339113 0.39022229 2.87957139 0 0 Z " fill="#162C64" transform="translate(887,746)"/>
<path d="M0 0 C0.61328125 1.859375 0.61328125 1.859375 1 4 C-0.8125 6.25 -0.8125 6.25 -3 8 C-3.66 8 -4.32 8 -5 8 C-5.226875 8.61875 -5.45375 9.2375 -5.6875 9.875 C-7.37929835 12.61410209 -8.99244161 13.05024472 -12 14 C-8 9.33333333 -4 4.66666667 0 0 Z " fill="#20356A" transform="translate(745,545)"/>
<path d="M0 0 C0.74609375 1.734375 0.74609375 1.734375 1 4 C-0.65234375 6.140625 -0.65234375 6.140625 -2.9375 8.25 C-3.68902344 8.95640625 -4.44054687 9.6628125 -5.21484375 10.390625 C-5.80394531 10.92171875 -6.39304687 11.4528125 -7 12 C-7.66 11.34 -8.32 10.68 -9 10 C-8.27683594 9.29423828 -8.27683594 9.29423828 -7.5390625 8.57421875 C-6.90742187 7.95160156 -6.27578125 7.32898438 -5.625 6.6875 C-4.68527344 5.76517578 -4.68527344 5.76517578 -3.7265625 4.82421875 C-1.81913393 2.91187472 -1.81913393 2.91187472 0 0 Z " fill="#152E62" transform="translate(696,598)"/>
<path d="M0 0 C0.33 0.99 0.66 1.98 1 3 C-1.31 4.98 -3.62 6.96 -6 9 C-6.66 8.67 -7.32 8.34 -8 8 C-5.36 5.36 -2.72 2.72 0 0 Z " fill="#1C3367" transform="translate(730,562)"/>
<path d="M0 0 C0.33 0.99 0.66 1.98 1 3 C-0.65 4.65 -2.3 6.3 -4 8 C-4.66 7.34 -5.32 6.68 -6 6 C-4.02 4.02 -2.04 2.04 0 0 Z " fill="#1E376B" transform="translate(762,527)"/>
<path d="M0 0 C0.66 0.33 1.32 0.66 2 1 C-2.75 5.875 -2.75 5.875 -5 7 C-5.66 6.34 -6.32 5.68 -7 5 C-4.69 3.35 -2.38 1.7 0 0 Z " fill="#1B3166" transform="translate(944,904)"/>
<path d="M0 0 C0.99 0.33 1.98 0.66 3 1 C-0.465 3.97 -0.465 3.97 -4 7 C-4.66 6.67 -5.32 6.34 -6 6 C-4.02 4.02 -2.04 2.04 0 0 Z " fill="#1B3465" transform="translate(703,591)"/>
<path d="M0 0 C0.99 0.33 1.98 0.66 3 1 C3 1.66 3 2.32 3 3 C1.03533587 4.06775224 -0.96855359 5.06553465 -3 6 C-3.66 5.67 -4.32 5.34 -5 5 C-3.35 3.35 -1.7 1.7 0 0 Z " fill="#20386E" transform="translate(1001,977)"/>
<path d="M0 0 C2.38564077 0.57584432 4.66682784 1.22227595 7 2 C7.33 2.99 7.66 3.98 8 5 C2.25 3.125 2.25 3.125 0 2 C0 1.34 0 0.68 0 0 Z " fill="#293F70" transform="translate(424,1004)"/>
<path d="M0 0 C0.6875 1.8125 0.6875 1.8125 1 4 C-0.1875 5.8125 -0.1875 5.8125 -2 7 C-4.1875 6.6875 -4.1875 6.6875 -6 6 C-5.195625 5.38125 -4.39125 4.7625 -3.5625 4.125 C-0.96125481 2.25835959 -0.96125481 2.25835959 0 0 Z " fill="#182F62" transform="translate(350,918)"/>
<path d="M0 0 C-1.98 0.33 -3.96 0.66 -6 1 C-6 1.66 -6 2.32 -6 3 C-6.99 3.33 -7.98 3.66 -9 4 C-9.66 3.34 -10.32 2.68 -11 2 C-3.57142857 -1.57142857 -3.57142857 -1.57142857 0 0 Z " fill="#405381" transform="translate(439,901)"/>
<path d="M0 0 C-1.15173355 2.46800047 -2.04783565 4.04783565 -4 6 C-4.99 5.67 -5.98 5.34 -7 5 C-2.25 0 -2.25 0 0 0 Z " fill="#183164" transform="translate(717,578)"/>
<path d="M0 0 C0.33 0.99 0.66 1.98 1 3 C-0.65 4.32 -2.3 5.64 -4 7 C-4 5.68 -4 4.36 -4 3 C-3.01 3 -2.02 3 -1 3 C-0.67 2.01 -0.34 1.02 0 0 Z " fill="#1B3466" transform="translate(759,462)"/>
</svg>

